<svg width="124" height="124" viewBox="0 0 124 124" fill="none" xmlns="http://www.w3.org/2000/svg">
<path d="M118.252 37.2517C123.976 50.2686 125.01 64.8677 121.176 78.5611C117.343 92.2545 108.879 104.195 97.2286 112.348C85.5778 120.5 71.4606 124.361 57.2825 123.271C43.1043 122.182 29.7427 116.209 19.4745 106.372C9.20625 96.5351 2.66683 83.4418 0.970563 69.3234C-0.725704 55.205 2.52616 40.9352 10.172 28.9458C17.8179 16.9563 29.3846 7.98905 42.9011 3.57208C56.4176 -0.844894 71.0476 -0.438259 84.2979 4.72269C91.8224 7.63882 98.696 12.014 104.523 17.5967C110.35 23.1793 115.016 29.859 118.252 37.2517ZM71.9428 74.5961L65.2716 69.6303C64.7745 69.8182 64.259 69.9532 63.7336 70.033C61.6482 70.3427 59.5248 69.8166 57.8252 68.5692C56.1255 67.3218 54.9869 65.4539 54.657 63.3715C54.5729 62.8117 54.5471 62.2447 54.5799 61.6796L47.5068 56.4207L39.1093 93.8621L71.9428 74.5961ZM51.9481 50.1219L58.7489 55.1837C59.5459 54.7507 60.4118 54.4589 61.3082 54.3213C63.3936 54.0116 65.517 54.5376 67.2167 55.7851C68.9164 57.0325 70.0549 58.9004 70.3848 60.9827C70.5217 61.9191 70.4971 62.872 70.312 63.8L76.3761 68.2789L84.7897 30.8742L51.9481 50.1219ZM106.703 79.3767C110.751 69.034 111.088 57.6072 107.655 47.044C104.222 36.4808 97.2326 27.435 87.877 21.4484C78.5215 15.4618 67.3793 12.905 56.3497 14.2137C45.32 15.5224 35.0856 20.6157 27.3908 28.6254C19.6959 36.6351 15.017 47.0654 14.1514 58.1387C13.2858 69.2119 16.2872 80.2426 22.6439 89.3507C29.0007 98.4588 38.3194 105.08 49.0117 108.087C59.704 111.094 71.1081 110.299 81.2803 105.839C87.0514 103.32 92.2681 99.6848 96.6308 95.1436C100.993 90.6024 104.416 85.2443 106.703 79.3767Z" fill="#05D182"/>
</svg>
