<svg width="120" height="120" viewBox="0 0 120 120" fill="none" xmlns="http://www.w3.org/2000/svg">
<rect width="120" height="120" rx="10" fill="#05D182"/>
<path d="M58.0413 49.2917V43.4583H60.958V49.2917H58.0413ZM67.7393 53.3021L65.734 51.2969L69.8174 47.1042L71.859 49.1823L67.7393 53.3021ZM69.708 60.9583V58.0417H75.5413V60.9583H69.708ZM58.0413 75.5417V69.7083H60.958V75.5417H58.0413ZM51.2601 53.2292L47.1038 49.1823L49.182 47.1406L53.3018 51.2604L51.2601 53.2292ZM69.7809 71.8958L65.734 67.7031L67.7028 65.7344L71.859 69.7448L69.7809 71.8958ZM43.458 60.9583V58.0417H49.2913V60.9583H43.458ZM49.182 71.8958L47.1403 69.8177L51.2236 65.7344L52.2809 66.7188L53.3382 67.7396L49.182 71.8958ZM59.4997 68.25C57.0691 68.25 55.0031 67.3993 53.3018 65.6979C51.6004 63.9965 50.7497 61.9306 50.7497 59.5C50.7497 57.0695 51.6004 55.0035 53.3018 53.3021C55.0031 51.6007 57.0691 50.75 59.4997 50.75C61.9302 50.75 63.9962 51.6007 65.6976 53.3021C67.399 55.0035 68.2497 57.0695 68.2497 59.5C68.2497 61.9306 67.399 63.9965 65.6976 65.6979C63.9962 67.3993 61.9302 68.25 59.4997 68.25ZM59.4997 65.3333C61.1038 65.3333 62.4771 64.7622 63.6195 63.6198C64.7618 62.4774 65.333 61.1042 65.333 59.5C65.333 57.8958 64.7618 56.5226 63.6195 55.3802C62.4771 54.2379 61.1038 53.6667 59.4997 53.6667C57.8955 53.6667 56.5222 54.2379 55.3799 55.3802C54.2375 56.5226 53.6663 57.8958 53.6663 59.5C53.6663 61.1042 54.2375 62.4774 55.3799 63.6198C56.5222 64.7622 57.8955 65.3333 59.4997 65.3333Z" fill="white"/>
</svg>
